<svg width="16" height="16" viewBox="0 0 16 16" fill="none" xmlns="http://www.w3.org/2000/svg">
<path d="M3.33334 5.33331C2.22668 5.33331 1.33334 6.22665 1.33334 7.33331V12.6666C1.33334 13.7733 2.22668 14.6666 3.33334 14.6666H4.33334C5.06668 14.6666 5.66668 14.0666 5.66668 13.3333V6.66665C5.66668 5.93331 5.06668 5.33331 4.33334 5.33331H3.33334ZM4.00001 11.3333C4.00001 11.6066 3.77334 11.8333 3.50001 11.8333C3.22668 11.8333 3.00001 11.6066 3.00001 11.3333V8.66665C3.00001 8.39331 3.22668 8.16665 3.50001 8.16665C3.77334 8.16665 4.00001 8.39331 4.00001 8.66665V11.3333Z" fill="#201D1D"/>
<path d="M12.6667 1.33331H8.66666C7.55999 1.33331 6.66666 2.22665 6.66666 3.33331V12.6666C6.66666 13.7733 7.55999 14.6666 8.66666 14.6666H8.99999C9.18666 14.6666 9.33332 14.52 9.33332 14.3333V12C9.33332 11.6333 9.63332 11.3333 9.99999 11.3333H11.3333C11.7 11.3333 12 11.6333 12 12V14.3333C12 14.52 12.1467 14.6666 12.3333 14.6666H12.6667C13.7733 14.6666 14.6667 13.7733 14.6667 12.6666V3.33331C14.6667 2.22665 13.7733 1.33331 12.6667 1.33331ZM9.83332 8.66665C9.83332 8.93998 9.60666 9.16665 9.33332 9.16665C9.05999 9.16665 8.83332 8.93998 8.83332 8.66665V5.33331C8.83332 5.05998 9.05999 4.83331 9.33332 4.83331C9.60666 4.83331 9.83332 5.05998 9.83332 5.33331V8.66665ZM12.5 8.66665C12.5 8.93998 12.2733 9.16665 12 9.16665C11.7267 9.16665 11.5 8.93998 11.5 8.66665V5.33331C11.5 5.05998 11.7267 4.83331 12 4.83331C12.2733 4.83331 12.5 5.05998 12.5 5.33331V8.66665Z" fill="#201D1D"/>
</svg>
