<svg width="20" height="20" viewBox="0 0 20 20" fill="none" xmlns="http://www.w3.org/2000/svg">
<path d="M11.337 0.674663C11.337 0.303182 11.695 0 12.1409 0C12.5869 0 12.9449 0.301516 12.9449 0.674663V3.62652C12.9449 3.998 12.5869 4.30118 12.1409 4.30118C11.695 4.30118 11.337 3.99967 11.337 3.62652V0.674663ZM14.8702 9.50025C15.5635 9.50025 16.2259 9.64185 16.8313 9.89838C17.4611 10.1649 18.0259 10.5547 18.4978 11.0378C18.9698 11.5209 19.3506 12.1006 19.611 12.742C19.8617 13.3617 20 14.0396 20 14.7493C20 15.4589 19.8617 16.1369 19.611 16.7566C19.3506 17.4013 18.9698 17.9793 18.4978 18.4624C18.0259 18.9455 17.4595 19.3353 16.8329 19.6019C16.2275 19.8584 15.5651 20 14.8718 20C14.1785 20 13.5162 19.8584 12.9107 19.6019C12.2809 19.3353 11.7162 18.9455 11.2442 18.4624C10.7722 17.9793 10.3914 17.3996 10.131 16.7566C9.88038 16.1369 9.74205 15.4589 9.74205 14.7493C9.74205 14.0396 9.88038 13.3617 10.131 12.742C10.3914 12.0973 10.7722 11.5192 11.2442 11.0361C11.7162 10.5531 12.2825 10.1633 12.9091 9.89672C13.5145 9.64185 14.1753 9.50025 14.8702 9.50025ZM14.4861 12.5554C14.4861 12.4288 14.5366 12.3138 14.618 12.2306C14.6993 12.1473 14.8116 12.0956 14.9369 12.0956C15.0623 12.0956 15.1745 12.1473 15.2559 12.2306C15.3373 12.3138 15.3877 12.4288 15.3877 12.5571V15.0125L17.1812 16.1019L17.1959 16.1119C17.2951 16.1769 17.3602 16.2752 17.3863 16.3835C17.4139 16.4968 17.4009 16.62 17.3407 16.7266L17.3375 16.7316C17.3342 16.7383 17.3309 16.7433 17.3261 16.7483C17.2626 16.8482 17.1666 16.9149 17.0624 16.9415C16.9517 16.9698 16.8313 16.9565 16.7272 16.8949L14.7221 15.6805C14.6521 15.6422 14.5935 15.5839 14.5512 15.5156C14.5089 15.4456 14.4845 15.364 14.4845 15.2774L14.4861 12.5554ZM17.8615 11.6875C17.4709 11.2877 17.0055 10.9662 16.4895 10.748C15.9915 10.5364 15.4447 10.4215 14.8702 10.4215C14.2957 10.4215 13.7489 10.5381 13.2509 10.748C12.735 10.9662 12.2695 11.2877 11.8789 11.6875C11.4883 12.0873 11.1742 12.5637 10.961 13.0918C10.7543 13.6015 10.642 14.1613 10.642 14.7493C10.642 15.3373 10.756 15.8971 10.961 16.4068C11.1742 16.9349 11.4883 17.4113 11.8789 17.8111C12.2695 18.2109 12.735 18.5324 13.2509 18.7506C13.7489 18.9622 14.2957 19.0771 14.8702 19.0771C15.4447 19.0771 15.9915 18.9605 16.4895 18.7506C17.0055 18.5324 17.4709 18.2109 17.8615 17.8111C18.628 17.0265 19.1 15.9454 19.1 14.7493C19.1 14.1613 18.9861 13.6015 18.781 13.0918C18.5662 12.5637 18.2521 12.0873 17.8615 11.6875ZM2.18895 9.55522C2.14338 9.55522 2.10269 9.35032 2.10269 9.09878C2.10269 8.84724 2.1385 8.64401 2.18895 8.64401H4.38278C4.42835 8.64401 4.46904 8.84891 4.46904 9.09878C4.46904 9.35032 4.43323 9.55522 4.38278 9.55522H2.18895ZM5.68639 9.55522C5.64082 9.55522 5.60013 9.35032 5.60013 9.09878C5.60013 8.84724 5.63593 8.64401 5.68639 8.64401H7.88022C7.92579 8.64401 7.96647 8.84891 7.96647 9.09878C7.96647 9.35032 7.93067 9.55522 7.88022 9.55522H5.68639ZM9.18382 9.55522C9.13825 9.55522 9.09757 9.35032 9.09757 9.09878C9.09757 8.84724 9.13337 8.64401 9.18382 8.64401H11.3777C11.4232 8.64401 11.4639 8.84724 11.4639 9.09712C11.2442 9.23705 11.0326 9.3903 10.8308 9.55522H9.18382ZM2.19383 12.1672C2.14826 12.1672 2.10758 11.9624 2.10758 11.7108C2.10758 11.4593 2.14338 11.2544 2.19383 11.2544H4.38766C4.43323 11.2544 4.47392 11.4593 4.47392 11.7108C4.47392 11.9624 4.43812 12.1672 4.38766 12.1672H2.19383ZM5.69127 12.1672C5.6457 12.1672 5.60501 11.9624 5.60501 11.7108C5.60501 11.4593 5.64082 11.2544 5.69127 11.2544H7.8851C7.93067 11.2544 7.97136 11.4593 7.97136 11.7108C7.97136 11.9624 7.93555 12.1672 7.8851 12.1672H5.69127ZM2.19871 14.7809C2.15315 14.7809 2.11246 14.576 2.11246 14.3245C2.11246 14.073 2.14826 13.8681 2.19871 13.8681H4.39255C4.43812 13.8681 4.4788 14.073 4.4788 14.3245C4.4788 14.576 4.443 14.7809 4.39255 14.7809H2.19871ZM5.69615 14.7809C5.65058 14.7809 5.6099 14.576 5.6099 14.3245C5.6099 14.073 5.6457 13.8681 5.69615 13.8681H7.88998C7.93555 13.8681 7.97624 14.073 7.97624 14.3245C7.97624 14.576 7.94043 14.7809 7.88998 14.7809H5.69615ZM4.11588 0.674663C4.11588 0.303182 4.47392 0 4.91985 0C5.36577 0 5.72382 0.301516 5.72382 0.674663V3.62652C5.72382 3.998 5.36415 4.30118 4.91985 4.30118C4.47392 4.30118 4.11588 3.99967 4.11588 3.62652V0.674663ZM0.885345 6.45344H16.1966V3.05514C16.1966 2.93853 16.151 2.83691 16.0778 2.76195C16.0046 2.68699 15.9004 2.64035 15.7914 2.64035H14.3234C14.0776 2.64035 13.8775 2.43545 13.8775 2.18391C13.8775 1.93237 14.0776 1.72747 14.3234 1.72747H15.7914C16.151 1.72747 16.4733 1.87573 16.7093 2.11727C16.9452 2.35882 17.0901 2.68866 17.0901 3.0568V8.45244C16.7971 8.34916 16.4961 8.26587 16.1868 8.20423V7.36132H16.1966H0.885345V16.1619C0.885345 16.2785 0.930914 16.3801 1.00415 16.4551C1.07739 16.5301 1.18154 16.5767 1.29058 16.5767H8.56701C8.65001 16.8932 8.75417 17.2014 8.87949 17.4979H1.29872C0.940679 17.4979 0.616812 17.3497 0.380828 17.1081C0.144845 16.8682 0 16.5384 0 16.1702V3.05847C0 2.69199 0.144845 2.36049 0.380828 2.11894C0.616812 1.87739 0.939051 1.72914 1.29872 1.72914H2.86598C3.11173 1.72914 3.3119 1.93403 3.3119 2.18557C3.3119 2.43711 3.11173 2.64201 2.86598 2.64201H1.29872C1.1848 2.64201 1.08552 2.68866 1.01229 2.76362C0.939051 2.83858 0.893482 2.94519 0.893482 3.0568V6.45511H0.885345V6.45344ZM7.00952 2.64035C6.76377 2.64035 6.56359 2.43545 6.56359 2.18391C6.56359 1.93237 6.76377 1.72747 7.00952 1.72747H9.99756C10.2433 1.72747 10.4435 1.93237 10.4435 2.18391C10.4435 2.43545 10.2433 2.64035 9.99756 2.64035H7.00952Z" fill="#A0A0A0"/>
</svg>
