<svg width="20" height="20" viewBox="0 0 20 20" fill="none" xmlns="http://www.w3.org/2000/svg">
<path d="M1.9243 20H16.8217C17.3311 20 17.8197 19.8052 18.1804 19.4583C18.5411 19.1114 18.7445 18.6406 18.746 18.1493V15.3008C19.0971 15.2395 19.4147 15.0615 19.6439 14.7978C19.8729 14.534 19.999 14.2011 20 13.857V12.3408C20.0001 11.9964 19.8745 11.6629 19.6452 11.3989C19.4159 11.1349 19.0975 10.9572 18.746 10.897V8.62267C18.7445 8.13079 18.5413 7.65953 18.1808 7.31169C17.8202 6.9639 17.3316 6.76785 16.8217 6.7664H16.4172L17.1684 6.01944C17.2761 5.91497 17.3365 5.77372 17.3365 5.62644C17.3365 5.47917 17.2761 5.33786 17.1684 5.23345L12.6669 0.868695C12.5586 0.764872 12.4121 0.706592 12.2595 0.706592C12.1068 0.706592 11.9604 0.764872 11.8521 0.868695L11.124 1.57107L7.98035 0.0604092C7.84432 -0.00624378 7.68645 -0.0182677 7.54117 0.0269629C7.46911 0.0499015 7.40237 0.0863246 7.34487 0.134147C7.28737 0.18197 7.24016 0.240261 7.20601 0.305682L3.87749 6.7664H1.9243C1.41445 6.76785 0.925858 6.9639 0.565327 7.31169C0.204795 7.65953 0.00156024 8.13079 0 8.62267V18.1493C0.00156024 18.6406 0.204969 19.1114 0.565674 19.4583C0.926379 19.8052 1.41497 20 1.9243 20ZM18.8443 13.8682C18.8443 13.9628 18.8053 14.0535 18.736 14.1204C18.6666 14.1874 18.5725 14.2249 18.4744 14.2249H15.2095C15.1773 14.2249 15.1464 14.2126 15.1237 14.1907C15.101 14.1687 15.0881 14.1389 15.0881 14.1079V12.1011C15.0881 12.07 15.101 12.0403 15.1237 12.0183C15.1464 11.9963 15.1773 11.984 15.2095 11.984H18.4744C18.5725 11.984 18.6666 12.0216 18.736 12.0885C18.8053 12.1554 18.8443 12.2461 18.8443 12.3408V13.8682ZM12.2623 2.05047L15.9665 5.62365L14.7819 6.7664H7.3447L12.2623 2.05047ZM7.98035 1.3035L10.2629 2.41838L5.73245 6.78313H5.15458L7.98035 1.3035ZM1.15574 8.62267C1.15574 8.42601 1.23675 8.23748 1.38087 8.0984C1.52499 7.95938 1.72049 7.88128 1.9243 7.88128H16.8217C17.0251 7.88273 17.2197 7.96133 17.3635 8.10002C17.5074 8.23877 17.5888 8.42651 17.5903 8.62267V10.8524H15.2095C14.8708 10.8524 14.546 10.9822 14.3064 11.2133C14.067 11.4443 13.9324 11.7577 13.9324 12.0844V14.08C13.9324 14.4067 14.067 14.7201 14.3064 14.9511C14.546 15.1821 14.8708 15.3119 15.2095 15.3119H17.5903V18.1326C17.5888 18.3282 17.5071 18.5154 17.3632 18.6532C17.2192 18.791 17.0246 18.8684 16.8217 18.8684H1.9243C1.82369 18.8691 1.72384 18.8506 1.63063 18.814C1.53742 18.7773 1.45264 18.7232 1.38122 18.6548C1.30979 18.5864 1.25305 18.5051 1.21439 18.4154C1.17567 18.3258 1.15574 18.2297 1.15574 18.1326V8.62267Z" fill="#9F9F9F"/>
</svg>
