<svg width="243" height="261" viewBox="0 0 243 261" fill="none" xmlns="http://www.w3.org/2000/svg">
<path d="M243 121.5C243 188.603 188.603 243 121.5 243C54.3974 243 0 188.603 0 121.5C0 54.3974 54.3974 0 121.5 0C188.603 0 243 54.3974 243 121.5Z" fill="#3572D8"/>
<path d="M226.5 138C226.5 195.99 179.49 243 121.5 243C63.5101 243 16.5 195.99 16.5 138C16.5 80.0101 63.5101 33 121.5 33C179.49 33 226.5 80.0101 226.5 138Z" fill="#7DACFB"/>
<mask id="mask0_102_2991" style="mask-type:alpha" maskUnits="userSpaceOnUse" x="0" y="0" width="243" height="243">
<path d="M243 121.5C243 188.603 188.603 243 121.5 243C54.3974 243 0 188.603 0 121.5C0 54.3974 54.3974 0 121.5 0C188.603 0 243 54.3974 243 121.5Z" fill="black"/>
</mask>
<g mask="url(#mask0_102_2991)">
<path d="M157.44 149.018H86.576C60.302 149.018 39 169.438 39 194.628V288.28H205.016V194.628C205.016 169.438 183.716 149.018 157.44 149.018Z" fill="#F5F6F5"/>
<path d="M78.3761 192.818C78.1021 192.818 77.8802 193.04 77.8802 193.314V211.038L68.1362 188.024C68.0302 187.772 67.7402 187.654 67.4862 187.762C67.2342 187.868 67.1161 188.158 67.2241 188.41L77.8802 213.578V220.172V220.272V288.28C77.8802 288.556 78.1021 288.776 78.3761 288.776C78.6501 288.776 78.8721 288.556 78.8721 288.28V220.272V220.172V193.314C78.8721 193.04 78.6501 192.818 78.3761 192.818Z" fill="white"/>
<path d="M177.706 187.762C177.452 187.654 177.164 187.772 177.058 188.024L167.734 210.042V193.48C167.734 193.206 167.512 192.984 167.238 192.984C166.964 192.984 166.744 193.206 166.744 193.48V212.382L166.36 213.284C166.254 213.538 166.37 213.828 166.622 213.934L166.744 213.958V220.172V220.438V288.28C166.744 288.556 166.964 288.776 167.238 288.776C167.512 288.776 167.734 288.556 167.734 288.28V220.438V220.172V212.582L177.97 188.41C178.078 188.158 177.958 187.868 177.706 187.762Z" fill="white"/>
<path d="M138.722 142.916C137.72 143.136 136.682 143.26 135.614 143.26H109.894C108.826 143.26 107.788 143.136 106.786 142.916C103.886 142.28 101.318 140.768 99.3599 138.678V147.68C99.3599 160.6 109.834 171.072 122.754 171.072C135.674 171.072 146.148 160.6 146.148 147.68V138.678C144.188 140.768 141.62 142.28 138.722 142.916Z" fill="#FAD2EB"/>
<path d="M122.754 149.202C116.428 149.202 110.754 146.772 106.786 142.916C107.788 143.136 108.826 143.26 109.894 143.26H135.614C136.682 143.26 137.72 143.136 138.722 142.916C134.756 146.772 129.08 149.202 122.754 149.202Z" fill="#F4A8D8"/>
<path d="M92.012 101.393L92.02 101.341L91.852 101.411C91.584 101.411 91.368 101.193 91.368 100.927C91.368 96.9887 94.266 96.1587 95.462 95.9847V93.6547C95.248 93.3547 95.058 93.0367 94.876 92.7167C91.046 93.7887 88.218 97.2687 88.218 101.441C88.218 105.829 91.328 109.491 95.462 110.347V106.633C93.382 105.463 92.012 103.559 92.012 101.393Z" fill="#FAD2EB"/>
<path d="M157.358 101.44C157.358 97.1444 154.37 93.5644 150.366 92.6124C150.26 92.8784 150.158 93.1444 150.046 93.4104V95.6984C150.248 95.7824 150.452 95.8584 150.642 95.9524C151.612 96.0484 154.984 96.6804 154.984 100.926C154.984 101.194 154.766 101.41 154.5 101.41L154.468 101.398C154.466 103.88 152.662 106.008 150.046 107.086V110.358C154.214 109.528 157.358 105.854 157.358 101.44Z" fill="#FAD2EB"/>
<path d="M154.014 100.926C154.014 96.972 150.526 96.904 150.376 96.902L150.046 96.764V107.086C152.662 106.008 154.466 103.88 154.468 101.398C154.218 101.38 154.014 101.182 154.014 100.926Z" fill="#ED79C3"/>
<path d="M92.336 100.927C92.336 101.129 92.196 101.269 92.02 101.341L92.012 101.393C92.012 103.559 93.382 105.463 95.462 106.633V96.9588C94.466 97.1208 92.336 97.8228 92.336 100.927Z" fill="#ED79C3"/>
<path d="M150.046 96.0723V95.6982C150.248 95.7822 150.452 95.8582 150.642 95.9522L150.378 95.9362L150.046 96.0723Z" fill="#B173C0"/>
<path d="M150.046 96.0722V96.7642L150.376 96.9021C150.526 96.9041 154.014 96.9722 154.014 100.926C154.014 101.182 154.218 101.38 154.468 101.398L154.5 101.41C154.766 101.41 154.984 101.192 154.984 100.926C154.984 96.6802 151.612 96.0481 150.642 95.9521L150.378 95.9361L150.046 96.0722Z" fill="#052E63"/>
<path d="M91.3682 100.926C91.3682 101.192 91.5841 101.41 91.8521 101.41L92.0202 101.34C92.1962 101.268 92.3362 101.128 92.3362 100.926C92.3362 97.8222 94.4662 97.1202 95.4622 96.9582V95.9841C94.2662 96.1581 91.3682 96.9882 91.3682 100.926Z" fill="#052E63"/>
<path d="M150.046 96.7643V93.4103C150.158 93.1443 150.26 92.8783 150.366 92.6123C150.964 91.1063 151.498 89.6122 152.07 88.4362C156.73 78.8722 159.716 63.4903 145.766 61.6263C145.128 61.5403 144.498 61.5003 143.876 61.5023C138.926 61.5163 134.422 58.9583 131.816 54.7523L131.762 54.6663C128.586 49.7523 123.058 46.5003 116.77 46.5003C106.886 46.5003 98.41 55.4063 98.956 65.3203C95.57 65.4483 92.37 67.7783 91.212 70.9643C90.386 73.2343 90.554 75.7382 90.874 78.1342C91.354 81.7622 92.154 85.3462 93.258 88.8342C93.682 90.1742 94.18 91.5043 94.876 92.7163C95.058 93.0363 95.248 93.3543 95.462 93.6543V95.9842V96.9583V106.632V110.346V128.83C95.462 132.642 96.946 136.102 99.36 138.678C101.318 140.768 103.886 142.28 106.786 142.916C107.788 143.136 108.826 143.26 109.894 143.26H135.614C136.682 143.26 137.72 143.136 138.722 142.916C141.62 142.28 144.188 140.768 146.148 138.678C148.562 136.102 150.046 132.642 150.046 128.83V110.358V107.086V96.7643Z" fill="#052E63"/>
<path d="M100.884 102.77V83.2244C100.884 78.1364 104.5 74.0144 108.96 74.0144H107.926C103.154 74.0144 99.2878 78.0924 99.2878 83.1224V102.452C99.2878 106.768 102.138 110.376 105.96 111.316C102.988 109.956 100.884 106.646 100.884 102.77Z" fill="#FAD2EB"/>
<path d="M137.434 74.0143H136.548C141.006 74.0143 144.624 78.1363 144.624 83.2243V102.77C144.624 106.554 142.62 109.802 139.758 111.218C143.4 110.148 146.074 106.632 146.074 102.452V83.1223C146.074 78.0923 142.206 74.0143 137.434 74.0143Z" fill="#FAD2EB"/>
<path d="M105.96 111.316C102.138 110.376 99.2878 106.768 99.2878 102.452V83.1224C99.2878 78.0924 103.154 74.0144 107.926 74.0144H108.96C104.5 74.0144 100.884 78.1364 100.884 83.2244V102.77C100.884 106.646 102.988 109.956 105.96 111.316Z" fill="#F4A8D8"/>
<path d="M139.758 111.218C142.62 109.802 144.624 106.554 144.624 102.77V83.2243C144.624 78.1363 141.006 74.0143 136.548 74.0143H137.434C142.206 74.0143 146.074 78.0923 146.074 83.1223V102.452C146.074 106.632 143.4 110.148 139.758 111.218Z" fill="#F4A8D8"/>
<path d="M136.548 74.014H135.214C134.172 80.144 128.846 84.816 122.42 84.816C115.992 84.816 110.668 80.144 109.624 74.014H108.96C104.5 74.014 100.884 78.136 100.884 83.224V102.77C100.884 106.646 102.988 109.956 105.962 111.316C106.888 111.74 107.9 111.98 108.96 111.98H113.714C114.832 109.204 117.546 107.228 120.708 107.228H125.774C128.938 107.228 131.652 109.204 132.768 111.98H136.548C137.688 111.98 138.774 111.706 139.758 111.218C142.62 109.802 144.624 106.554 144.624 102.77V83.224C144.624 78.136 141.006 74.014 136.548 74.014Z" fill="#FAD2EB"/>
<path d="M134.518 100.356C135.148 100.356 135.658 99.8485 135.658 99.2185V96.9424C135.658 96.3144 135.148 95.8044 134.518 95.8044C133.89 95.8044 133.38 96.3144 133.38 96.9424V99.2185C133.38 99.8485 133.89 100.356 134.518 100.356Z" fill="#052E63"/>
<path d="M112.11 100.356C112.74 100.356 113.248 99.8485 113.248 99.2185V96.9424C113.248 96.3144 112.74 95.8044 112.11 95.8044C111.482 95.8044 110.972 96.3144 110.972 96.9424V99.2185C110.972 99.8485 111.482 100.356 112.11 100.356Z" fill="#052E63"/>
<path d="M131.482 92.2983C131.958 92.7703 132.69 92.8563 133.39 92.9923C134.098 93.1123 134.804 93.2563 135.414 93.4103C136.022 93.5663 136.714 93.7763 137.398 94.0123C138.082 94.2243 138.774 94.5003 139.39 94.3083C139.98 94.1323 140.388 93.3003 140.008 92.0543C139.66 90.8463 138.394 89.3083 136.378 88.7883C134.36 88.2823 132.61 89.0543 131.82 89.9723C130.984 90.9103 131.02 91.8543 131.482 92.2983Z" fill="#052E63"/>
<path d="M107.054 94.3722C107.738 94.5862 108.472 94.3142 109.204 94.1062C109.932 93.8762 110.672 93.6702 111.324 93.5242C111.976 93.3742 112.736 93.2402 113.498 93.1322C114.25 93.0022 115.044 92.9281 115.528 92.4481C116 91.9961 115.974 91.0142 114.998 90.0222C114.07 89.0482 112.108 88.2081 109.944 88.6921C107.786 89.1881 106.514 90.7642 106.22 92.0142C105.896 93.3022 106.398 94.1762 107.054 94.3722Z" fill="#052E63"/>
<path d="M123.95 123.214L121.36 123.36C120.104 123.43 119.046 122.786 118.998 121.92L118.686 116.374L132.97 115.738C133.392 123.228 129.148 122.922 123.95 123.214Z" fill="white"/>
<path d="M126.71 104.583H121.78C120.666 104.583 119.622 104.035 118.99 103.115C118.358 102.197 118.218 101.024 118.618 99.9845L121.292 89.5825C121.358 89.3245 121.62 89.1685 121.882 89.2345C122.14 89.3005 122.296 89.5665 122.23 89.8245L119.538 100.277C119.232 101.085 119.33 101.901 119.788 102.567C120.246 103.233 120.972 103.615 121.78 103.615H126.71C126.978 103.615 127.194 103.83 127.194 104.098C127.194 104.366 126.978 104.583 126.71 104.583Z" fill="#052E63"/>
<path d="M122.01 252.772C119.348 252.772 116.712 252.674 114.1 252.48L119.258 191.822L119.228 191.778L114.26 182.46L116.598 177.78L120.132 183.812C120.452 184.36 121.076 184.7 121.758 184.7H125.234C125.974 184.7 126.646 184.314 126.962 183.704L129.79 178.266L132.126 182.94L128.012 191.628L127.758 192.016L132.46 252.26C129.024 252.6 125.536 252.772 122.01 252.772ZM123.414 230.296C123.418 230.296 123.422 230.296 123.426 230.296C123.668 230.292 123.908 230.15 124.002 229.876L127.764 218.882L127.796 218.632L125.798 193.032L125.79 193.034H121.32L120.958 192.984L118.778 218.624L118.812 218.89L122.83 229.888C122.832 229.892 122.834 229.896 122.834 229.9C122.936 230.16 123.168 230.292 123.402 230.296C123.406 230.296 123.41 230.296 123.414 230.296Z" fill="#5F6CBD"/>
<path d="M123.414 230.296C123.41 230.296 123.406 230.296 123.402 230.296C123.168 230.292 122.936 230.16 122.834 229.9C122.834 229.896 122.832 229.892 122.83 229.888L118.812 218.89L118.778 218.624L120.958 192.984L121.32 193.034H125.79L125.798 193.032L127.796 218.632L127.764 218.882L124.002 229.876C123.908 230.15 123.668 230.292 123.426 230.296C123.422 230.296 123.418 230.296 123.414 230.296Z" fill="#6C7AC5"/>
<path d="M123.414 230.296C123.41 230.296 123.406 230.296 123.402 230.296C123.406 230.296 123.41 230.296 123.414 230.296ZM123.426 230.296C123.668 230.292 123.908 230.15 124.002 229.876L127.764 218.882L127.796 218.632L127.764 218.882L124.002 229.876C123.908 230.15 123.668 230.292 123.426 230.296ZM122.834 229.9C122.834 229.896 122.832 229.892 122.83 229.888L118.812 218.89L118.778 218.624L118.812 218.89L122.83 229.888C122.832 229.892 122.834 229.896 122.834 229.9Z" fill="#5F6EBF"/>
<path d="M125.234 184.701H121.758C121.076 184.701 120.452 184.361 120.132 183.813L116.598 177.781L120.032 170.917C120.926 171.019 121.834 171.073 122.754 171.073C123.882 171.073 124.992 170.993 126.076 170.839L129.79 178.267L126.962 183.705C126.646 184.315 125.974 184.701 125.234 184.701Z" fill="#6C7AC5"/>
<path d="M122.754 171.072C121.834 171.072 120.926 171.018 120.032 170.916L123.074 164.832L126.076 170.838C124.992 170.992 123.882 171.072 122.754 171.072Z" fill="#6D78C4"/>
<path d="M148.614 142.484L123.074 163.334L97.5318 142.484L84.7598 161.64L112.964 185.052L114.258 182.46L116.598 177.78L123.074 164.832L129.79 178.266L132.126 182.94L133.182 185.052L161.384 161.64L148.614 142.484Z" fill="white"/>
</g>
<path d="M230.684 125.813C228.84 124.699 226.428 125.729 225.602 127.719C224.556 130.243 223.496 132.763 222.478 135.299C222.818 134.449 225.078 115.605 225.17 113.879C225.214 113.015 225.732 110.417 224.952 109.095C224.608 108.513 223.854 108.315 223.182 108.233C222.466 108.145 221.704 108.175 221.07 108.523C220.454 108.857 220.02 109.459 219.756 110.107C219.488 110.753 219.372 111.449 219.256 112.141C218.332 117.731 217.362 123.317 216.584 128.931C216.744 121.227 217.496 113.599 217.978 105.913C218.054 104.705 218.126 103.461 217.73 102.319C217.334 101.175 216.348 100.147 215.14 100.089C214.014 100.033 212.986 100.831 212.432 101.813C211.88 102.797 211.71 103.941 211.548 105.059C211.042 108.583 210.534 112.109 210.026 115.633C209.768 117.419 209.512 119.205 209.252 120.993C209.128 121.861 209.004 122.731 208.878 123.601C208.776 124.301 208.812 125.543 208.454 126.099C208.264 124.591 208.54 122.883 208.592 121.357C208.652 119.691 208.71 118.025 208.766 116.361C208.882 113.079 208.998 109.799 209.11 106.517C209.154 105.313 209.194 104.101 208.978 102.917C208.762 101.731 208.266 100.565 207.382 99.7468C206.498 98.9328 205.184 98.5269 204.046 98.9169C203.26 99.1869 202.628 99.7988 202.188 100.503C201.748 101.207 201.486 102.005 201.25 102.803C200.366 105.815 199.85 108.923 199.388 112.029C198.9 115.315 198.468 118.605 198.094 121.903C197.942 123.259 197.722 125.125 196.322 125.783C195.136 126.341 193.678 125.733 193.326 124.453C192.704 122.213 192.152 119.965 191.548 117.721C191.09 116.019 190.312 114.293 188.85 113.305C187.602 112.461 185.934 112.275 184.532 112.827C183.132 113.379 182.034 114.651 181.696 116.117C181.466 117.113 181.57 118.149 181.674 119.165C182.778 130.033 183.822 140.907 184.864 151.781L218.566 159.965L230.522 131.613C232.158 127.737 231.73 126.445 230.684 125.813Z" fill="#FAD2EB"/>
<path d="M200.018 142.446C199.774 142.404 199.61 142.17 199.656 141.926C201.612 130.848 193.888 125.906 193.558 125.702C193.346 125.57 193.282 125.292 193.414 125.082C193.446 125.028 193.488 124.984 193.536 124.95C193.918 125.6 194.632 125.984 195.374 125.99C197.7 128.078 202.092 133.308 200.54 142.082C200.508 142.266 200.368 142.404 200.196 142.442L200.018 142.446Z" fill="#F4A8D8"/>
<path d="M182.928 151.312C179.872 150.568 176.84 152.61 176.374 155.722L164.626 234.544C164.618 235.052 164.614 235.554 164.616 236.048C164.69 266.512 209.226 269.448 213.256 239.252L223.042 165.962C223.404 163.258 221.666 160.716 219.012 160.072L218.566 159.964L184.864 151.78L182.928 151.312Z" fill="#F5F6F5"/>
<path d="M220.618 179.875C221.006 179.823 221.34 179.537 221.434 179.133C221.556 178.611 221.232 178.091 220.71 177.971L183.64 169.385L183.562 169.305L181.384 158.511C181.276 157.985 180.772 157.639 180.244 157.753C179.718 157.859 179.378 158.369 179.484 158.893L181.664 169.687C181.82 170.471 182.424 171.093 183.204 171.273L220.272 179.857L220.618 179.875Z" fill="#FBFCFC"/>
<path d="M187.908 162.746C187.726 163.526 188.214 164.308 188.996 164.488C189.774 164.67 190.558 164.182 190.738 163.4C190.92 162.62 190.43 161.838 189.65 161.658L189.134 161.632C188.55 161.71 188.048 162.14 187.908 162.746ZM188.558 166.376C186.738 165.954 185.598 164.128 186.02 162.308C186.442 160.486 188.266 159.346 190.088 159.772C191.908 160.192 193.046 162.018 192.624 163.838C192.298 165.252 191.124 166.254 189.762 166.434C189.372 166.486 188.964 166.47 188.558 166.376Z" fill="#FBFCFC"/>
</svg>
