<svg width="36" height="36" viewBox="0 0 36 36" fill="none" xmlns="http://www.w3.org/2000/svg">
<circle cx="18" cy="18" r="18" fill="white"/>
<path d="M-3.14722e-06 18C-4.88538e-06 27.9411 8.05886 36 18 36L18 24.3265L14.8235 21.1765L18 18.0265L21.1764 14.8235L18 11.6735L18 3.14722e-06C8.05887 1.40906e-06 -1.40906e-06 8.05887 -3.14722e-06 18Z" fill="black"/>
<circle cx="10.5619" cy="10.2441" r="1.72059" fill="white"/>
<path d="M27.053 25.65C27.053 26.6003 26.2827 27.3706 25.3324 27.3706C24.3821 27.3706 23.6118 26.6003 23.6118 25.65C23.6118 24.6998 24.3821 23.9294 25.3324 23.9294C26.2827 23.9294 27.053 24.6998 27.053 25.65Z" fill="black"/>
<circle cx="18" cy="18" r="16.7727" stroke="black" stroke-width="2.45457"/>
</svg>
