<svg width="7" height="13" viewBox="0 0 7 13" fill="none" xmlns="http://www.w3.org/2000/svg">
<path d="M0.421659 5.40904H5.67158C5.77315 5.40904 5.86107 5.3551 5.93526 5.24713C6.0094 5.13919 6.04663 5.01137 6.04663 4.86363C6.04663 4.7159 6.00942 4.58814 5.93526 4.48005L3.31028 0.661911C3.23611 0.55409 3.14826 0.5 3.04663 0.5C2.945 0.5 2.85715 0.55409 2.78292 0.661911L0.157945 4.48005C0.083715 4.58802 0.0466309 4.7159 0.0466309 4.86363C0.0466309 5.01134 0.083715 5.13919 0.157945 5.24713C0.232257 5.3551 0.320114 5.40904 0.421659 5.40904Z" fill="#A0A0A0"/>
<path d="M5.67158 7.59106H0.421659C0.320032 7.59106 0.232175 7.64504 0.157945 7.75289C0.083715 7.86086 0.0466309 7.98865 0.0466309 8.13638C0.0466309 8.28411 0.083715 8.41199 0.157945 8.51991L2.78292 12.338C2.85723 12.446 2.94509 12.5 3.04663 12.5C3.14818 12.5 3.23611 12.446 3.31028 12.338L5.93526 8.51988C6.0094 8.41199 6.04663 8.28411 6.04663 8.13635C6.04663 7.98865 6.00942 7.86086 5.93526 7.75286C5.86109 7.64492 5.77315 7.59106 5.67158 7.59106Z" fill="#A0A0A0"/>
</svg>
