<svg width="22" height="24" viewBox="0 0 22 24" fill="none" xmlns="http://www.w3.org/2000/svg">
<path d="M11.0001 15.1355C12.837 15.1355 14.3261 13.6464 14.3261 11.8095C14.3261 9.97262 12.837 8.48352 11.0001 8.48352C9.16317 8.48352 7.67407 9.97262 7.67407 11.8095C7.67407 13.6464 9.16317 15.1355 11.0001 15.1355Z" stroke="#9F9F9F" stroke-width="1.5" stroke-miterlimit="10" stroke-linecap="round" stroke-linejoin="round"/>
<path d="M20.7766 7.12482L19.9451 5.68466C19.4861 4.88892 18.4692 4.61702 17.6734 5.07601L17.2361 5.32878C15.5731 6.28833 13.4943 5.08848 13.4943 3.16855V2.663C13.4943 1.74419 12.7501 1 11.8313 1H10.1683C9.24951 1 8.50532 1.74419 8.50532 2.663V3.16855C8.50532 5.08848 6.42657 6.28916 4.76358 5.32878L4.32621 5.07601C3.53047 4.61702 2.51354 4.88892 2.05456 5.68466L1.22306 7.12482C0.764071 7.92056 1.03597 8.93748 1.83171 9.39647L2.26908 9.64925C3.93208 10.6096 3.93208 13.0093 2.26908 13.9697L1.83171 14.2225C1.03597 14.6815 0.764071 15.6984 1.22306 16.4941L2.05456 17.9343C2.51354 18.73 3.53047 19.0019 4.32621 18.543L4.76358 18.2902C6.42657 17.3298 8.50532 18.5305 8.50532 20.4504V20.956C8.50532 21.8748 9.24951 22.619 10.1683 22.619H11.8313C12.7501 22.619 13.4943 21.8748 13.4943 20.956V20.4504C13.4943 18.5305 15.5731 17.3298 17.2361 18.2902L17.6734 18.543C18.4692 19.0019 19.4861 18.73 19.9451 17.9343L20.7766 16.4941C21.2356 15.6984 20.9637 14.6815 20.1679 14.2225L19.7305 13.9697C18.0676 13.0093 18.0676 10.6096 19.7305 9.64925L20.1679 9.39647C20.9637 8.93748 21.2364 7.92056 20.7766 7.12482Z" stroke="#9F9F9F" stroke-width="1.5" stroke-miterlimit="10" stroke-linecap="round" stroke-linejoin="round"/>
</svg>
