<svg width="450" height="449" viewBox="0 0 450 449" fill="none" xmlns="http://www.w3.org/2000/svg">
<g clip-path="url(#clip0_102_3110)">
<path d="M450 0H0V450H450V0Z" fill="#003462"/>
<path d="M450 0H0V450H450V0Z" fill="url(#paint0_linear_102_3110)" fill-opacity="0.2"/>
<path opacity="0.2" d="M206.511 290.672C201.811 273.761 188.457 260.652 171.482 256.269L67.8867 229.552C50.9011 225.179 32.8778 230.196 20.6029 242.734L-17 281.115V478H187.129L222.957 441.415C235.243 428.888 239.901 410.751 235.201 393.851L206.511 290.672Z" fill="#014CA7"/>
<path opacity="0.5" d="M451 229L302.707 320.943C286.166 331.16 281.044 352.848 291.254 369.387L341.044 450H451V229Z" fill="#053F63"/>
<path d="M353.01 394.834L352.419 392.537L359.082 390.831L359.668 393.128L353.01 394.834Z" fill="#5693CE"/>
<path d="M349.608 398.149L349.022 395.852L355.685 394.146L356.271 396.443L349.608 398.149Z" fill="#5693CE"/>
<path d="M346.211 401.463L345.625 399.171L352.288 397.46L352.874 399.757L346.211 401.463Z" fill="#5693CE"/>
<path d="M342.814 404.778L342.223 402.486L348.886 400.775L349.477 403.068L342.814 404.778Z" fill="#5693CE"/>
<path d="M124.291 256.492C120.07 258.968 113.199 259.017 108.944 256.603C104.689 254.185 104.66 250.217 108.881 247.74C113.102 245.264 119.978 245.215 124.233 247.634C128.488 250.052 128.517 254.021 124.291 256.492ZM212.269 186.308L149.752 222.992C133.9 218.127 113.707 219.629 100.376 227.45C84.1665 236.963 84.2731 252.203 100.618 261.488C104.287 263.572 108.464 265.176 112.918 266.31C116.063 267.11 119.348 267.672 122.692 267.996C135.693 269.261 149.572 266.945 159.574 261.071C171.689 253.962 174.689 243.66 168.612 235.029L177.238 229.965L176.996 224.489L186.072 224.426L185.844 219.299L194.921 219.236L194.693 214.104L203.774 214.041L203.542 208.914L212.623 208.851L212.395 203.72L222.087 203.652L225.043 201.917L228.304 188.45L212.269 186.308Z" fill="#C4D9E9"/>
<path d="M246.472 418.342L162.157 369.863C156.478 366.582 157.19 360.859 163.747 357.074L245.58 309.826C252.132 306.041 262.052 305.63 267.726 308.91L352.041 357.389C357.72 360.665 357.008 366.388 350.451 370.178L268.618 417.421C262.061 421.205 252.146 421.617 246.472 418.342Z" fill="#C4D9E9"/>
<path d="M345.32 308.426L330.743 300.009L384.489 268.98C387.029 267.516 387.029 265.132 384.489 263.664L329.585 231.967C327.046 230.498 322.917 230.498 320.378 231.967L266.631 262.995L252.054 254.578L305.801 223.549C316.375 217.443 333.583 217.443 344.161 223.549L399.066 255.251C409.645 261.357 409.645 271.291 399.066 277.397L345.32 308.426Z" fill="#5693CE"/>
<path d="M368.842 312.133C368.842 304.341 364.107 295.289 358.258 291.911L260.884 235.693C258.267 234.181 255.873 234.075 254.027 235.107L254.022 235.102L137.753 302.664L250.189 387.391L364.732 320.904C365.086 320.745 365.43 320.56 365.745 320.318C367.659 318.869 368.842 316.025 368.842 312.133Z" fill="#D5ECFA"/>
<path d="M250.189 387.391L364.732 320.904C365.086 320.744 365.43 320.56 365.745 320.318C367.659 318.869 368.842 316.024 368.842 312.133C368.842 308.411 367.756 304.409 365.988 300.871L235.418 376.26L250.189 387.391Z" fill="#1F3E79"/>
<path d="M242.867 387.09L145.487 330.867C139.643 327.495 134.904 318.442 134.904 310.645C134.904 302.853 139.643 299.272 145.487 302.645L242.867 358.867C248.711 362.24 253.45 371.292 253.45 379.085C253.45 386.882 248.711 390.463 242.867 387.09Z" fill="#5693CE"/>
<path d="M228.28 368.128L216.572 361.373C215.409 360.699 214.464 358.897 214.464 357.341C214.464 355.79 215.409 355.078 216.572 355.752L228.28 362.502C229.443 363.176 230.388 364.978 230.388 366.534C230.388 368.085 229.443 368.802 228.28 368.128Z" fill="white"/>
<path d="M140.37 170.152L160.379 181.515L180.795 169.536L180.736 164.327L180.567 164.429L180.547 164.06L189.629 163.997L189.571 158.87L198.477 158.807L198.424 153.675L207.326 153.612L207.273 148.485L216.175 148.422L216.122 143.291L225.639 143.223L228.595 141.488L231.861 128.021L231.808 122.812L230.233 127.803L215.826 125.879L140.37 170.152Z" fill="#396DAB"/>
<path d="M160.325 176.306L180.736 164.327L180.494 158.851L189.571 158.788L189.343 153.661L198.424 153.598L198.196 148.466L207.273 148.403L207.04 143.271L216.122 143.213L215.894 138.081L225.586 138.013L228.547 136.278L231.808 122.811L215.773 120.669L140.316 164.937L160.325 176.306Z" fill="#D5ECFA"/>
<path d="M173.918 168.329C171.864 165.407 168.777 162.684 164.648 160.333C161.736 158.681 158.498 157.344 155.063 156.287L140.316 164.937L160.325 176.306L173.918 168.329Z" fill="#396DAB"/>
<path d="M231.26 125.074L231.808 122.811L229.119 122.453L165.365 159.859L168.723 161.763L231.26 125.074Z" fill="#5693CE"/>
<path d="M92.0169 186.589L91.7939 179.18L94.1636 184.181L92.0169 186.589Z" fill="#D3D1CF"/>
<path d="M127.954 189.395C132.209 191.813 132.238 195.782 128.013 198.258C123.792 200.734 116.92 200.783 112.665 198.365C108.411 195.946 108.382 191.978 112.602 189.501C116.828 187.025 123.7 186.981 127.954 189.395ZM104.34 203.249C120.685 212.534 147.081 212.35 163.296 202.837C171.427 198.069 175.45 191.861 175.387 185.683V185.688L175.159 177.842L173.826 179.325C171.946 175.458 168.36 171.814 163.054 168.799C146.713 159.515 120.312 159.699 104.103 169.211C87.888 178.724 87.9946 193.964 104.34 203.249Z" fill="#396DAB"/>
<path d="M127.732 181.99C131.986 184.413 132.015 188.377 127.795 190.854C123.574 193.33 116.702 193.378 112.447 190.96C108.193 188.547 108.164 184.578 112.384 182.102C116.605 179.626 123.477 179.577 127.732 181.99ZM104.122 195.845C120.463 205.135 146.863 204.946 163.073 195.433C179.288 185.92 179.181 170.68 162.836 161.395C146.49 152.11 120.094 152.294 103.88 161.812C87.6653 171.324 87.7719 186.56 104.122 195.845Z" fill="#F3F4F4"/>
<path d="M123.07 199.901C119.474 200.463 115.495 199.974 112.665 198.365C109.612 196.63 108.75 194.1 110.053 191.896L102.649 186.022C102.649 186.022 98.7768 181.656 94.9436 177.329C88.9831 186.042 92.1233 196.31 104.34 203.25C109.729 206.312 115.772 208.052 122.619 209.06L123.07 199.901Z" fill="#5693CE"/>
<path d="M127.732 181.99C131.986 184.413 132.015 188.377 127.795 190.854C123.574 193.33 116.702 193.378 112.447 190.96C108.193 188.547 108.164 184.578 112.384 182.102C116.605 179.626 123.477 179.577 127.732 181.99ZM104.122 195.845C107.791 197.929 111.968 199.538 116.421 200.671C119.566 201.471 122.847 202.033 126.191 202.358C139.192 203.623 153.071 201.306 163.073 195.433C179.288 185.92 179.181 170.68 162.836 161.395C146.49 152.11 120.094 152.294 103.88 161.812C87.6653 171.324 87.7719 186.56 104.122 195.845Z" fill="#D5ECFA"/>
<path d="M96.3974 178.981C97.1921 174.237 100.71 169.604 106.971 165.926C121.398 157.465 144.881 157.3 159.424 165.562C166.654 169.667 170.303 175.08 170.385 180.527C171.422 174.343 167.827 167.971 159.598 163.294C145.056 155.037 121.567 155.202 107.146 163.663C99.8865 167.922 96.315 173.466 96.3974 178.981Z" fill="#396DAB"/>
<path d="M106.792 183.599C103.846 183.599 100.551 184.621 97.1099 186.642C84.8739 193.819 74.9979 211.201 75.0996 225.39C75.1432 232.005 77.3433 236.875 81.2928 239.119C85.2422 241.358 90.5534 240.757 96.2522 237.408C108.493 230.232 118.364 212.849 118.267 198.66C118.238 194.769 117.444 191.377 115.966 188.857C114.967 187.151 113.654 185.833 112.069 184.932C110.504 184.045 108.726 183.599 106.792 183.599ZM86.5603 246.354C83.6237 246.354 80.8663 245.651 78.3852 244.241C72.5264 240.917 69.2651 234.239 69.207 225.429C69.0907 209.37 80.2703 189.69 94.1297 181.559C101.718 177.105 109.123 176.48 114.982 179.809C117.477 181.224 119.518 183.269 121.044 185.872C123.079 189.337 124.126 193.625 124.16 198.621C124.271 214.681 113.092 234.365 99.2373 242.497C94.8614 245.06 90.5485 246.354 86.5603 246.354Z" fill="#396DAB"/>
<path d="M114.483 196.64L126.123 199.489L127.794 190.854C123.574 193.33 116.702 193.378 112.447 190.96L114.483 196.64Z" fill="#D5ECFA"/>
<path d="M104.122 195.845C107.79 197.929 111.968 199.537 116.421 200.671C119.566 201.471 122.847 202.033 126.191 202.358C139.192 203.623 153.071 201.306 163.073 195.433L115.685 194.372L104.122 195.845Z" fill="#D5ECFA"/>
<path d="M121.63 201.829C121.63 201.829 116.591 201.01 111.338 199.179V206.448C113.843 207.325 117.972 208.59 121.504 209.055C132.355 210.489 121.63 201.829 121.63 201.829Z" fill="#396DAB"/>
<path d="M114.071 200.056C111.909 199.416 109.549 198.602 107.369 197.579C101.03 194.614 109.05 205.609 109.05 205.609C109.05 205.609 111.207 206.467 114.071 207.349V200.056Z" fill="#5693CE"/>
<path d="M232.971 327.81L212.23 341.18L202.136 339.542L226.792 327.621L232.971 327.81Z" fill="#5693CE"/>
<path d="M207.898 395.328C207.898 395.328 201.923 392.314 198.255 396.802C194.591 401.289 189.348 411.877 189.183 419.03C189.018 426.183 194.843 425.703 198.308 424.007C201.768 422.316 211.882 407.642 212.497 404.768C213.108 401.895 211.775 398.008 210.801 397.247C209.827 396.487 207.898 395.328 207.898 395.328Z" fill="#1F3E79"/>
<path d="M209.202 393.889L209.478 400.077C209.536 401.396 208.877 402.646 207.729 403.295C206.687 403.891 205.17 404.342 203.12 404.012C198.623 403.29 198.221 402.006 197.901 395.818C197.581 389.63 209.202 393.889 209.202 393.889Z" fill="#5693CE"/>
<path d="M186.033 383.432C186.033 383.432 180.063 380.417 176.394 384.905C172.726 389.387 167.483 399.976 167.318 407.133C167.158 414.286 172.983 413.801 176.443 412.11C179.903 410.414 190.021 395.745 190.632 392.871C191.242 389.998 189.91 386.111 188.936 385.35C187.962 384.59 186.033 383.432 186.033 383.432Z" fill="#1F3E79"/>
<path d="M187.337 381.993L187.613 388.181C187.671 389.494 187.012 390.749 185.864 391.399C184.822 391.99 183.31 392.445 181.26 392.116C176.758 391.394 176.356 390.105 176.036 383.921C175.716 377.733 187.337 381.993 187.337 381.993Z" fill="#5693CE"/>
<path d="M240.632 268.383C238.868 239.618 209.483 272.614 209.483 272.614L189.372 292.327L171.262 312.22C167.725 316.102 166.082 321.35 166.765 326.559L174.093 382.336C174.456 385.093 176.811 387.124 179.588 387.104C180.373 387.095 181.274 387.027 182.302 386.867C188.839 385.849 188.354 379.637 188.354 379.637L187.017 327.46L225.048 304.539C225.048 304.539 242.401 297.144 240.632 268.383Z" fill="#D5ECFA"/>
<path d="M201.55 317.604L196.137 315.617C196.011 315.617 186.939 324.393 187.017 327.461L191.087 328.769L201.312 318.849L201.55 317.604Z" fill="#5693CE"/>
<path d="M232.971 327.81C232.971 327.81 255.568 314.905 258.272 309.492C259.333 307.374 260.981 305.16 254.385 301.957L224.243 323.443L225.552 330.843L232.971 327.81Z" fill="#5693CE"/>
<path d="M262.497 279.481C260.612 250.725 231.348 283.711 231.348 283.711L211.237 303.425L193.127 323.317C189.59 327.204 187.947 332.452 188.63 337.661L195.958 393.438C196.316 396.195 198.676 398.226 201.453 398.207C202.238 398.197 203.134 398.124 204.167 397.964C210.704 396.947 210.219 390.734 210.219 390.734L208.882 338.563L246.908 315.636C246.908 315.636 264.222 305.775 262.497 279.481Z" fill="#D5ECFA"/>
<path d="M245.115 187.006C267.392 196.247 266.946 209.414 266.946 209.414C266.946 209.414 262.58 257.689 264.072 289.929C264.692 303.406 192.463 304.433 203.236 268.476C215.932 226.079 211.174 191.76 217.12 186.584C223.066 181.404 239.353 184.622 245.115 187.006Z" fill="#5693CE"/>
<path d="M252.282 198.684C251.119 203.206 245.193 205.59 239.048 204.005C232.898 202.425 228.862 197.478 230.03 192.952C231.193 188.43 237.119 186.046 243.264 187.626C249.408 189.211 253.45 194.163 252.282 198.684Z" fill="#FBC1B1"/>
<path d="M239.455 188.203C235.316 188.203 231.856 190.126 231.062 193.218C230.582 195.069 231.139 197.09 232.622 198.907C234.182 200.821 236.557 202.266 239.309 202.978C244.877 204.407 250.232 202.367 251.25 198.418C251.725 196.567 251.172 194.546 249.69 192.729C248.129 190.815 245.755 189.37 243.002 188.658C241.791 188.348 240.599 188.203 239.455 188.203ZM242.808 205.556C241.5 205.556 240.143 205.391 238.781 205.037C235.588 204.218 232.816 202.518 230.97 200.254C229.051 197.899 228.348 195.21 228.997 192.685C230.306 187.602 236.828 184.869 243.53 186.599C246.724 187.418 249.496 189.118 251.342 191.382C253.261 193.737 253.964 196.426 253.314 198.951C252.272 203.002 247.921 205.556 242.808 205.556Z" fill="white"/>
<path d="M236.184 186.002C236.184 186.002 236.373 186.899 235.99 193.954C235.869 196.174 243.637 198.248 245.648 196.242C247.659 194.231 246.855 192.142 247.334 184.587C247.819 177.037 236.184 186.002 236.184 186.002Z" fill="#FBC1B1"/>
<path d="M247.334 184.587C247.334 184.587 245.42 191.595 235.99 194.279L236.131 187.917L247.334 184.587Z" fill="#EA9C92"/>
<path d="M253.309 166.798C255.684 175.966 250.169 185.319 241.001 187.689C231.832 190.059 222.48 184.549 220.11 175.38C217.74 166.212 223.25 156.859 232.419 154.489C241.587 152.12 250.94 157.629 253.309 166.798Z" fill="#FBC1B1"/>
<path d="M240.647 171.717C240.647 171.717 231.207 175.763 224.67 175.807C218.133 175.855 219.572 170.379 219.572 170.379L238.98 167.578L240.647 171.717Z" fill="#EA9C92"/>
<path d="M222.722 172.783C222.722 172.783 230.945 169.294 238.161 170.748C239.857 171.092 241.427 171.998 242.517 173.34C242.876 173.776 243.327 174.179 243.84 174.295C245.12 174.586 247.213 169.275 249.699 169.158C252.185 169.032 253.847 170.796 251.807 174.062C249.767 177.324 250.46 180.977 251.395 181.501C252.335 182.024 262.284 174.402 253.508 157.014C244.727 139.627 222.436 148.994 218.966 152.517C218.966 152.517 215.312 155.701 212.342 152.866C212.342 152.866 209.012 177.813 222.722 172.783Z" fill="#0B0A0B"/>
<path d="M254.448 244.682V257.728C254.448 259.22 253.818 260.645 252.713 261.653L225.915 286.086L228.963 290.743L264.353 265.074C266.001 263.877 267.067 262.036 267.28 260.005L269.674 237.253L254.448 244.682Z" fill="#FBC1B1"/>
<path d="M265.056 202.891C265.056 202.891 273.187 215.117 276.216 247.299C276.216 247.299 262.332 251.786 254.448 249.237C246.569 246.688 265.056 202.891 265.056 202.891Z" fill="#5693CE"/>
<path d="M252.965 218.349C252.965 218.349 249.782 235.383 249.602 243.388C249.549 245.588 250.896 247.575 252.965 248.321V218.349Z" fill="#396DAB"/>
<path d="M246.011 303.046L240.09 302.266L201.855 280.193C200.629 279.481 198.492 279.573 197.072 280.392L169.983 296.025L166.402 295.55V299.116H166.407C166.383 299.586 166.649 300.037 167.226 300.372L210.558 325.386C211.784 326.099 213.921 326.007 215.337 325.188L244.844 308.164C245.638 307.703 246.036 307.112 246.011 306.555V303.046Z" fill="#1F3E79"/>
<path d="M217.285 289.1L214.571 287.53H184.705L169.983 296.025L166.402 295.55V299.117H166.407C166.383 299.587 166.649 300.038 167.226 300.372L210.558 325.387C211.203 325.76 212.109 325.91 213.025 325.852L217.285 289.1Z" fill="#396DAB"/>
<path d="M167.992 295.759L166.402 295.55V299.117H166.407C166.383 299.587 166.649 300.038 167.226 300.372L167.992 300.813V295.759Z" fill="#5693CE"/>
<path d="M210.99 325.59C212.153 326.031 213.815 325.934 215.055 325.338V319.276H210.99V325.59Z" fill="#264F89"/>
<path d="M210.559 321.825L167.226 296.81C166 296.103 166.155 294.867 167.57 294.048L197.072 277.02C198.492 276.205 200.629 276.113 201.855 276.826L245.188 301.841C246.414 302.543 246.259 303.784 244.844 304.598L215.337 321.627C213.922 322.446 211.785 322.533 210.559 321.825Z" fill="white"/>
<path d="M209.822 318.035L173.797 297.232C172.775 296.645 172.905 295.618 174.083 294.935L189.891 286.047C191.068 285.369 192.847 285.296 193.869 285.882L229.894 306.681C230.916 307.272 230.786 308.3 229.608 308.978L213.8 317.871C212.623 318.549 210.844 318.622 209.822 318.035Z" fill="#D5ECFA"/>
<path d="M198.749 276.2L198.303 279.19C197.92 281.739 197.988 284.332 198.497 286.857L199.03 289.488C199.33 290.976 200.508 292.129 201.996 292.401C203.163 292.609 204.264 291.795 204.394 290.617L205.112 284.225C205.112 284.225 206.745 286.367 207.535 286.367C208.324 286.367 206.653 279.966 204.869 276.346C203.081 272.721 198.749 276.2 198.749 276.2Z" fill="#FBC1B1"/>
<path d="M213.437 228.686L208.79 237.883C207.69 240.064 207.04 242.439 206.885 244.871L204.869 276.346L198.749 276.2L195.972 240.854C195.89 239.764 195.938 238.664 196.132 237.588L199.301 219.663L213.437 228.686Z" fill="#FBC1B1"/>
<path d="M209.09 324.229L205.456 319.485L167.25 297.363C166.024 296.655 165.036 294.756 165.036 293.123L165.069 261.842L162.869 258.973L164.934 257.781H164.939C165.331 257.529 165.859 257.534 166.436 257.868L209.735 282.936C210.961 283.649 211.949 285.544 211.949 287.182L211.91 321.244C211.91 322.164 211.595 322.804 211.101 323.061L209.09 324.229Z" fill="#1F3E79"/>
<path d="M182.665 306.294L179.956 304.719L165.055 278.842L165.069 261.842L162.869 258.973L164.934 257.781H164.939C165.331 257.529 165.859 257.534 166.436 257.868L209.735 282.936C210.384 283.31 210.961 284.022 211.368 284.846L182.665 306.294Z" fill="#396DAB"/>
<path d="M163.848 260.248L162.869 258.973L164.934 257.781H164.939C165.331 257.529 165.859 257.534 166.436 257.868L167.197 258.309L163.848 260.248Z" fill="#5693CE"/>
<path d="M210.127 283.212C211.092 284.002 211.838 285.49 211.94 286.861L207.704 289.304L205.679 285.781L210.127 283.212Z" fill="#264F89"/>
<path d="M207.67 284.133L164.377 259.06C163.151 258.352 162.157 259.103 162.152 260.736L162.118 294.803C162.114 296.437 163.107 298.336 164.333 299.049L207.627 324.117C208.853 324.824 209.846 324.073 209.851 322.44L209.885 288.373C209.89 286.74 208.896 284.84 207.67 284.133Z" fill="#5693CE"/>
<path d="M228.964 290.743L228.271 292.177C227.471 293.835 226.216 295.225 224.651 296.19L220.347 298.84C219.01 299.664 217.319 299.732 215.957 298.942L215.812 298.855C214.445 297.997 214.324 296.035 215.448 294.876L219.94 290.258C219.94 290.258 217.416 292.192 216.708 291.416C216.19 290.845 219.155 288.058 221.433 287.966C223.715 287.874 225.915 286.086 225.915 286.086L228.964 290.743Z" fill="#FBC1B1"/>
<path d="M217.566 186.516C217.566 186.516 201.09 204.441 194.446 220.888C194.446 220.888 200.077 231.036 213.868 235.019C227.66 239.003 217.566 186.516 217.566 186.516Z" fill="#5693CE"/>
<path d="M210.767 233.958L213.437 208.158L207.147 232.33C208.266 232.911 209.478 233.459 210.767 233.958Z" fill="#396DAB"/>
<path d="M229.904 182.897L225.479 181.68C225.479 181.68 227.592 185.004 230.679 185.853C233.766 186.701 234.246 184.089 234.246 184.089L229.904 182.897Z" fill="white"/>
<path d="M145.88 121.169C140.53 121.169 136.183 125.521 136.183 130.866C136.183 136.211 140.53 140.562 145.88 140.562C151.225 140.562 155.571 136.211 155.571 130.866C155.571 125.521 151.225 121.169 145.88 121.169ZM145.88 143.266C139.042 143.266 133.479 137.703 133.479 130.866C133.479 124.028 139.042 118.465 145.88 118.465C152.717 118.465 158.28 124.028 158.28 130.866C158.28 137.703 152.717 143.266 145.88 143.266Z" fill="#D5ECFA"/>
<path d="M396.58 217.748C393.222 217.748 390.489 220.477 390.489 223.835C390.489 227.188 393.222 229.921 396.58 229.921C399.933 229.921 402.667 227.188 402.667 223.835C402.667 220.477 399.933 217.748 396.58 217.748ZM396.58 232.626C391.729 232.626 387.785 228.681 387.785 223.835C387.785 218.984 391.729 215.04 396.58 215.04C401.426 215.04 405.371 218.984 405.371 223.835C405.371 228.681 401.426 232.626 396.58 232.626Z" fill="#5693CE"/>
<path d="M105.905 380.587L109.486 387.87L116.77 384.294L113.189 377.011L105.905 380.587ZM108.256 391.495L102.285 379.356L114.425 373.386L120.395 385.525L108.256 391.495Z" fill="#5693CE"/>
<path d="M282.099 192.429L285.68 199.712L292.964 196.131L289.383 188.847L282.099 192.429ZM284.445 203.332L278.479 191.193L290.618 185.223L296.584 197.362L284.445 203.332Z" fill="#5693CE"/>
<path d="M94.6967 323.046L89.1141 325.789L86.3713 320.206L91.949 317.463L94.6967 323.046Z" fill="#5693CE"/>
<path d="M310.681 137.46L277.51 118.309C276.856 117.931 276.26 117.917 275.795 118.174V118.149L272.582 120.01C272.582 120.01 274.002 120.529 274.84 120.839V144.991C274.84 146.959 276.037 149.241 277.51 150.094L309.217 168.397V171.232L312.464 169.361L312.449 169.352C312.997 169.017 313.351 168.286 313.351 167.224V142.558C313.351 140.596 312.154 138.313 310.681 137.46Z" fill="#396DAB"/>
<path d="M307.405 171.13L274.234 151.979C272.756 151.131 271.564 148.849 271.564 146.881V122.215C271.564 120.253 272.756 119.346 274.234 120.199L307.405 139.351C308.878 140.203 310.07 142.486 310.07 144.449V169.114C310.07 171.082 308.878 171.983 307.405 171.13Z" fill="#1F3E79"/>
<path d="M285.39 143.479C285.39 144.909 284.387 145.486 283.151 144.773C281.915 144.061 280.912 142.326 280.912 140.896C280.912 139.467 281.915 138.89 283.151 139.603C284.387 140.32 285.39 142.055 285.39 143.479Z" fill="white"/>
<path d="M292.169 147.395C292.169 148.824 291.166 149.401 289.93 148.689C288.695 147.976 287.691 146.237 287.691 144.812C287.691 143.382 288.695 142.806 289.93 143.518C291.166 144.235 292.169 145.965 292.169 147.395Z" fill="white"/>
<path d="M298.949 151.31C298.949 152.735 297.945 153.317 296.71 152.604C295.474 151.887 294.471 150.152 294.471 148.727C294.471 147.298 295.474 146.721 296.71 147.434C297.945 148.146 298.949 149.886 298.949 151.31Z" fill="white"/>
<path d="M81.3751 347.305L48.8346 328.522C48.19 328.149 47.6085 328.134 47.153 328.381V328.362L43.9983 330.184C43.9983 330.184 45.3939 330.698 46.2177 330.998V354.695C46.2177 356.624 47.3856 358.862 48.8346 359.696L79.9359 377.655V380.437L83.1293 378.6L83.11 378.595C83.6479 378.266 83.9968 377.544 83.9968 376.506V352.311C83.9968 350.382 82.8241 348.143 81.3751 347.305Z" fill="#5693CE"/>
<path d="M78.1622 380.34L45.6217 361.552C44.1727 360.719 43 358.475 43 356.546V332.351C43 330.427 44.1727 329.54 45.6217 330.373L78.1622 349.161C79.6063 349.995 80.779 352.234 80.779 354.162V378.358C80.779 380.287 79.6063 381.174 78.1622 380.34Z" fill="#D5ECFA"/>
<path d="M56.5638 353.212C56.5638 354.613 55.58 355.18 54.3686 354.482C53.1571 353.779 52.1733 352.078 52.1733 350.678C52.1733 349.277 53.1571 348.71 54.3686 349.413C55.58 350.111 56.5638 351.812 56.5638 353.212Z" fill="white"/>
<path d="M63.2173 357.055C63.2173 358.456 62.2336 359.023 61.0172 358.32C59.8058 357.622 58.822 355.917 58.822 354.521C58.822 353.12 59.8058 352.549 61.0172 353.251C62.2336 353.949 63.2173 355.655 63.2173 357.055Z" fill="white"/>
<path d="M69.866 360.893C69.866 362.294 68.8823 362.861 67.6708 362.163C66.4593 361.46 65.4756 359.759 65.4756 358.359C65.4756 356.958 66.4593 356.391 67.6708 357.089C68.8823 357.792 69.866 359.493 69.866 360.893Z" fill="white"/>
</g>
<defs>
<linearGradient id="paint0_linear_102_3110" x1="225" y1="0" x2="225" y2="450" gradientUnits="userSpaceOnUse">
<stop stop-opacity="0"/>
<stop offset="1"/>
</linearGradient>
<clipPath id="clip0_102_3110">
<rect width="450" height="449" fill="white"/>
</clipPath>
</defs>
</svg>
